<?xml version="1.0" encoding="utf-8"?>
<!-- Generator: Adobe Illustrator 22.1.0, SVG Export Plug-In . SVG Version: 6.00 Build 0)  -->
<svg version="1.1" id="Layer_1" xmlns="http://www.w3.org/2000/svg" xmlns:xlink="http://www.w3.org/1999/xlink" x="0px" y="0px"
	 viewBox="0 0 150 150" style="enable-background:new 0 0 150 150;" xml:space="preserve">
<style type="text/css">
	.st0{fill:#FCFCFC;}
	.st1{fill:#FFFFFF;}
</style>
<g>
	<path class="st0" d="M4.5,24.4c7.6,0,15.2,0,23.1,0c0.7,3.2,1.5,6.3,2.3,9.9c38.4,0,76.9,0,116.1,0c-0.7,4.9-1.3,9.4-2.1,13.8
		c-2,12.4-4.1,24.9-5.9,37.4c-0.4,2.9-1.5,3.6-4.3,3.6C104.7,88.9,75.6,89,46.5,89c-1.5,0-3.1,0-5,0c0.6,3,1.2,5.5,1.8,8.4
		c30.6,0,61.1,0,92,0c-0.5,2.9-0.9,5.4-1.3,8.2c-1.5,0-2.8,0-4.1,0c-29.7,0-59.5-0.1-89.2,0.1c-3.3,0-4.4-0.9-5-4.2
		c-4.5-21.9-9.3-43.6-13.8-65.5c-0.5-2.6-1.4-3.6-4.1-3.4c-1.8,0.2-3.7,0-5.5,0C5,32.6,4.5,32.1,4.5,24.4z M74.8,43
		c0.3,3.9,0.7,7.3,1,10.8c6.2,0,12.1,0,18.3,0c0-3.7,0-7.1,0-10.8C87.8,43,81.5,43,74.8,43z M54.2,53.8c6.4,0,12.2,0,17.9,0
		c0-3,0.1-5.8-0.1-8.5c-0.1-0.9-1.1-2.3-1.8-2.3c-5.9-0.2-11.7-0.1-17.9-0.1C53,46.9,53.6,50.3,54.2,53.8z M115.5,53.9
		c0.4-3.7,0.9-7.1,1.3-10.8c-6.6,0-12.8,0-19.3,0c-0.2,3.7-0.3,7.2-0.5,10.8C103.2,53.9,109.1,53.9,115.5,53.9z M54.8,57.3
		c0.7,3.8,1.3,7.3,1.9,10.7c5.9,0,11.3,0,16.9,0c-0.3-3.7-0.6-7.2-0.8-10.7C66.7,57.3,60.9,57.3,54.8,57.3z M96.9,68
		c5.4,0,10.8,0,16.7,0c0.4-3.4,0.9-6.9,1.4-10.5c-6.3,0-12.1,0-18,0C96.9,61.1,96.9,64.4,96.9,68z M31.8,43c0.7,3.4,1.2,6.4,2,9.3
		c0.2,0.7,1.3,1.7,2,1.7c5,0.1,10.1,0.1,15.5,0.1c-0.7-4.1-1.4-7.6-2-11.1C43.3,43,37.8,43,31.8,43z M93.6,57.5c-6,0-11.7,0-17.7,0
		c0.2,3.7,0.4,7.1,0.6,10.5c5.9,0,11.4,0,17.1,0C93.6,64.4,93.6,61.1,93.6,57.5z M51.8,57.3c-5.8,0-11.1,0-16.9,0
		c0.8,3.8,1.5,7.2,2.2,10.7c5.7,0,10.9,0,16.5,0C52.9,64.3,52.4,61,51.8,57.3z M134.6,53.9c0.6-3.6,1.2-7.1,1.7-10.8
		c-5.7,0-11,0-16.4,0c-0.5,3.7-0.9,7.2-1.3,10.8C124.1,53.9,129.2,53.9,134.6,53.9z M118.1,57.3c-0.5,3.6-1,7-1.5,10.7
		c5.4,0,10.4,0,15.7,0c0.6-3.6,1.1-7,1.7-10.7C128.5,57.3,123.5,57.3,118.1,57.3z M77.4,80.7c5.5,0,10.5,0,15.8,0c0-3.1,0-6,0-9.2
		c-5.3,0-10.6,0-16.2,0C77.1,74.6,77.2,77.5,77.4,80.7z M55.8,80.8c-0.5-3-0.7-5.3-1.3-7.6c-0.2-0.8-1.2-1.9-1.9-1.9
		c-4.8-0.2-9.6-0.1-14.7-0.1c0.5,2.8,0.8,5.2,1.5,7.4c0.3,0.9,1.4,2,2.2,2.1C46.1,80.9,50.7,80.8,55.8,80.8z M111.9,80.6
		c0.4-3,0.8-6,1.2-9c-5.7,0-11,0-16.7,0c0,3.2,0,6,0,9C101.5,80.6,106.4,80.6,111.9,80.6z M57.2,71.4c0.6,3.4,1.2,6.3,1.7,9.2
		c5.4,0,10.4,0,15.8,0c-0.3-3.2-0.6-6.2-0.9-9.2C68.1,71.4,62.9,71.4,57.2,71.4z M115,80.8c4.7,0,9.1,0.1,13.6-0.1
		c0.7,0,1.8-0.8,1.9-1.4c0.5-2.5,0.8-5.1,1.2-8.1c-4.9,0-9.3-0.1-13.7,0.1c-0.7,0-1.9,1-2,1.7C115.5,75.5,115.3,78,115,80.8z"/>
	<path class="st1" d="M121.8,106.9c5.3,0,9.8,4.5,9.8,9.8c0,5.3-4.7,9.8-9.9,9.8c-5.3,0-9.8-4.7-9.8-9.9
		C111.9,111.3,116.4,106.9,121.8,106.9z"/>
	<path class="st1" d="M59.8,116.6c0,5.4-4.2,9.9-9.6,9.9c-5.3,0.1-9.7-4.4-9.8-9.7c0-5.5,4.1-9.8,9.6-9.9
		C55.4,106.9,59.8,111.2,59.8,116.6z"/>
	<path class="st1" d="M74.8,43c6.8,0,13,0,19.2,0c0,3.7,0,7.2,0,10.8c-6.2,0-12.1,0-18.3,0C75.4,50.4,75.1,46.9,74.8,43z"/>
	<path class="st1" d="M54.2,53.8c-0.6-3.5-1.2-6.9-1.9-11c6.2,0,12.1-0.1,17.9,0.1c0.6,0,1.7,1.5,1.8,2.3c0.2,2.7,0.1,5.5,0.1,8.5
		C66.5,53.8,60.7,53.8,54.2,53.8z"/>
	<path class="st1" d="M115.5,53.9c-6.4,0-12.2,0-18.5,0c0.2-3.7,0.3-7.1,0.5-10.8c6.5,0,12.7,0,19.3,0
		C116.4,46.8,115.9,50.2,115.5,53.9z"/>
	<path class="st1" d="M54.8,57.3c6.1,0,11.9,0,18,0c0.3,3.5,0.5,6.9,0.8,10.7c-5.6,0-11,0-16.9,0C56.1,64.6,55.5,61.1,54.8,57.3z"/>
	<path class="st1" d="M96.9,68c0-3.6,0-6.8,0-10.5c5.9,0,11.7,0,18,0c-0.5,3.5-0.9,7.1-1.4,10.5C107.8,68,102.3,68,96.9,68z"/>
	<path class="st1" d="M31.8,43c6,0,11.5,0,17.5,0c0.6,3.5,1.3,7,2,11.1c-5.4,0-10.5,0.1-15.5-0.1c-0.7,0-1.8-1-2-1.7
		C32.9,49.4,32.5,46.4,31.8,43z"/>
	<path class="st1" d="M93.6,57.5c0,3.6,0,6.9,0,10.5c-5.7,0-11.2,0-17.1,0c-0.2-3.4-0.4-6.8-0.6-10.5C81.9,57.5,87.7,57.5,93.6,57.5
		z"/>
	<path class="st1" d="M51.8,57.3c0.6,3.6,1.2,7,1.8,10.7C48,68,42.7,68,37,68c-0.7-3.4-1.4-6.9-2.2-10.7
		C40.7,57.3,46,57.3,51.8,57.3z"/>
	<path class="st1" d="M134.6,53.9c-5.4,0-10.4,0-16,0c0.5-3.6,0.9-7.1,1.3-10.8c5.4,0,10.7,0,16.4,0
		C135.7,46.8,135.1,50.3,134.6,53.9z"/>
	<path class="st1" d="M118.1,57.3c5.4,0,10.4,0,15.9,0c-0.6,3.7-1.2,7.1-1.7,10.7c-5.2,0-10.3,0-15.7,0
		C117.1,64.4,117.6,60.9,118.1,57.3z"/>
	<path class="st1" d="M77.4,80.7c-0.2-3.2-0.3-6-0.5-9.2c5.6,0,10.9,0,16.2,0c0,3.1,0,6,0,9.2C87.9,80.7,82.9,80.7,77.4,80.7z"/>
	<path class="st1" d="M55.8,80.8c-5.1,0-9.7,0.1-14.2-0.1c-0.8,0-1.9-1.2-2.2-2.1c-0.7-2.2-1-4.6-1.5-7.4c5.1,0,9.9-0.1,14.7,0.1
		c0.7,0,1.7,1.1,1.9,1.9C55,75.5,55.3,77.9,55.8,80.8z"/>
	<path class="st1" d="M111.9,80.6c-5.5,0-10.5,0-15.5,0c0-3.1,0-5.9,0-9c5.6,0,11,0,16.7,0C112.7,74.7,112.3,77.6,111.9,80.6z"/>
	<path class="st1" d="M57.2,71.4c5.8,0,11,0,16.6,0c0.3,3,0.6,5.9,0.9,9.2c-5.3,0-10.4,0-15.8,0C58.3,77.7,57.8,74.8,57.2,71.4z"/>
	<path class="st1" d="M115,80.8c0.3-2.9,0.5-5.4,1-7.8c0.1-0.7,1.3-1.7,2-1.7c4.4-0.2,8.9-0.1,13.7-0.1c-0.4,3-0.7,5.6-1.2,8.1
		c-0.1,0.6-1.2,1.4-1.9,1.4C124.2,80.9,119.7,80.8,115,80.8z"/>
</g>
</svg>
