<?xml version="1.0" encoding="utf-8"?>
<!-- Generator: Adobe Illustrator 25.0.0, SVG Export Plug-In . SVG Version: 6.00 Build 0)  -->
<svg version="1.1" id="Layer_1" xmlns="http://www.w3.org/2000/svg" xmlns:xlink="http://www.w3.org/1999/xlink" x="0px" y="0px"
	 viewBox="0 0 15 10" style="enable-background:new 0 0 15 10;" xml:space="preserve">
<style type="text/css">
	.st0{fill:#026839;}
</style>
<g>
	<path class="st0" d="M6.06,6.83C6.35,6.41,6.63,6,6.91,5.6c1.07-1.56,2.13-3.13,3.2-4.68c0.27-0.4,0.5-0.44,0.9-0.16
		c0.23,0.16,0.46,0.32,0.68,0.48c0.24,0.18,0.28,0.43,0.11,0.67c-1.21,1.78-2.41,3.57-3.62,5.35C7.73,7.9,7.3,8.53,6.86,9.16
		C6.58,9.58,6.1,9.64,5.74,9.29c-0.8-0.77-1.59-1.56-2.38-2.35C3.15,6.74,2.94,6.53,2.75,6.31C2.56,6.11,2.56,5.9,2.74,5.7
		c0.24-0.26,0.5-0.52,0.76-0.77c0.2-0.18,0.45-0.17,0.65,0.03c0.59,0.58,1.19,1.16,1.78,1.75C5.96,6.74,6,6.77,6.06,6.83z"/>
</g>
</svg>
